# xmcd
#
# Track frame offsets:
#	150
#	14335
#	34962
#	55882
#	101950
#	122510
#	139877
#	150770
#	167970
#	183360
#	193465
#	203460
#	214965
#	227877
#	251972
#
# Disc length: 3551
#
# Revision: 2
# Processed by: cddbd v1.5.1PL0 Copyright (c) Steve Scherf et al.
# Submitted via: audiograbber 1.80.04
# Normalized: r1:DSETVAR1
#
DISCID=dc0ddd0f
DTITLE=Various Artist - Blues Story #24
DYEAR=1998
DGENRE=Blues
TTITLE0=Robert Cray - I'm Gonna Forget About You
TTITLE1=Popa Chubby - I've Been Lovin' You Too Long
TTITLE2=Jimmy Witherspoon - Lonely Boy Blues
TTITLE3=BB King - Lucille
TTITLE4=Nappy Brown - Lemon Squeezin' Baby
TTITLE5=Lucky Peterson - Move
TTITLE6=Bobby "Blue" Band - Don't Cty No More
TTITLE7=Walter "Wolfman" Washington - Honky Tonk
TTITLE8=Albert king - Born Under A Bad Sign
TTITLE9=Junior Wells - Messin'With The kid
TTITLE10=Magic Sam - All My Whole life
TTITLE11=Little Milton - Feel So Bad
TTITLE12=Rockie Charles - Born For You
TTITLE13=Joe Louis Walker - Told And Evil Night
TTITLE14=Aaron Neville - Jailhouse
EXTD=
EXTT0=
EXTT1=
EXTT2=
EXTT3=
EXTT4=
EXTT5=
EXTT6=
EXTT7=
EXTT8=
EXTT9=
EXTT10=
EXTT11=
EXTT12=
EXTT13=
EXTT14=
PLAYORDER=
